<svg xmlns="http://www.w3.org/2000/svg" viewBox="0 0 138.08 152.51"><defs><style>.cls-1{fill:#b4c995;}.cls-2{fill:#759161;}</style></defs><g id="Capa_2" data-name="Capa 2"><g id="Color"><path class="cls-1" d="M107.63,9.46C113.75,4.54,122.17.75,129.31,4c5.6,2.56,8.72,9,8.55,15.18s-3.15,11.93-7,16.7A46.68,46.68,0,0,1,117.4,47.2c-7.15,4-15.15,6.11-22.49,9.69-8.74,4.25-10.45,1.39-9.23-7.89A61.41,61.41,0,0,1,107.63,9.46Z"/><path class="cls-2" d="M67.22,26.65c-1.76-3.65-4.16-7.3-7.89-8.86A10.11,10.11,0,0,0,49.54,19c-3.21,2.42-4.68,6.65-4.6,10.68s1.5,7.9,3.12,11.58C50.14,46,61.85,69.61,69.9,64.69c3.74-2.29,2.78-13.92,2.56-17.62A54.05,54.05,0,0,0,67.22,26.65Z"/><path class="cls-2" d="M111.56,86a30.48,30.48,0,0,1,5.51-5.55A14.91,14.91,0,0,1,128,77.7a12.24,12.24,0,0,1,9,6.47c2.52,5.18.52,11.7-3.51,15.82s-9.66,6.23-15.25,7.63a82.31,82.31,0,0,1-13.52,2.2c-4,.32-8.37,1.64-7.89-2.73C97.48,100.81,107.63,90.77,111.56,86Z"/></g><g id="Object"><path d="M109.18,29.1l.57-.06c-.14-.53-.29-1.06-.43-1.59-5.11,1.9-9.39,7-12.69,11.17A90.67,90.67,0,0,0,85.41,56.43,161.8,161.8,0,0,0,77.2,78.38C75,85.52,71.75,92.17,68.61,98.92a119.51,119.51,0,0,1-11.43,19.8C53.06,124.37,47,129,41.54,133.38c-6.73,5.4-14,9-22,12.08-3.9,1.53-7.87,3.57-12,4.17-2.58.37-4.59.24-6.88,1.53l2.56.52c.16-.3.33-.6.49-.91.75-1.36-2.54-1-3.07-.07-.16.31-.33.61-.5.91-.77,1.41,2.06.81,2.56.53,2.17-1.22,6.15-.75,8.64-1.58,3.22-1.07,6.36-2.5,9.54-3.74,6.74-2.63,13.37-5.51,19.29-9.73a159.41,159.41,0,0,0,15.08-12.86c4.83-4.44,8.09-10.06,11.45-15.63,3.83-6.33,6.63-13.27,9.8-19.93,3-6.38,4.52-13.24,6.81-19.88A94.25,94.25,0,0,1,94.13,46.3c4-5.86,9.52-14.9,16.5-17.49,1.48-.55,1-1.74-.43-1.59l-.57.06c-1.61.16-2.75,2-.45,1.82Z"/><path d="M86.06,60.23c0-13.26,2.56-26.9,9.21-38.5,3.61-6.29,9.07-10,15.09-13.79,5.41-3.44,16.24-10.58,20.13-1.75,2.29,5.21,2.35,13.83.6,19.19a57.35,57.35,0,0,1-9.87,17.33c-9.1,11.44-22,15.07-36.17,15.18-1.24,0-3.5,1.89-1.28,1.87,10.86-.08,21.85-1.65,31.16-7.82,4.89-3.24,8.66-8,12.12-12.66a39.93,39.93,0,0,0,4.17-7.51c1.44-3.16,3.24-6,3.76-9.5,1.28-8.4,1-23.48-10.82-22.19C118.7.67,113.54,3.68,109,6.54c-4.79,3-10.28,6.2-13.91,10.63-9.5,11.57-12.28,29-12.31,43.48,0,1.36,3.29.66,3.3-.42Z"/><path d="M65.57,109.08c9-7.54,6.86-23.72,4.93-33.95C69.22,68.37,69,61.32,67.24,54.66a42.29,42.29,0,0,0-2.86-8c-1.27-2.6-3.63-4.3-4.93-6.83-.58-1.12-3.78-.06-3.3.88,1,1.87,2.52,3.08,3.73,4.76a28.06,28.06,0,0,1,3.38,7.77c1.9,5.86,2,12,3.05,18.07,1,5.79,2.2,11.39,2.27,17.3.09,6.79,0,15.23-5.65,19.92-1.45,1.21,1.82,1.24,2.64.54Z"/><path d="M71.21,80.6c-.45-.24-.93-4.3-1.38-5.15-1.37-2.62-3.59-5-5.3-7.46C61,63,58.67,57.25,54.88,52.38c-4.81-6.18-7.53-16.15-5.7-24,1.57-6.71,8-6.94,12.35-2.19,3.64,3.93,7.08,9.27,7.56,14.7.6,6.76.62,13.57.8,20.39a21.36,21.36,0,0,1,0,5c-.29,1.37-.88,2.23-1,3.66a27.33,27.33,0,0,0,.14,2.85c.08,2.4-.59,4.09-.81,6.39-.12,1.32,3.2.7,3.3-.41.23-2.38.86-4.44.81-6.87-.07-3.12,1-5.74,1-8.82,0-3.59-.14-7.19-.14-10.78,0-3.39-.78-6.61-.78-10,0-5.07-1.83-9.13-4.68-13.21-2.48-3.55-5.15-7.39-9.73-8.17C41.39,18.1,44.21,42.52,49.84,51c2,3.07,4.39,5.72,6.14,9a79.46,79.46,0,0,0,4.58,8c2.06,3,6,6.82,6.75,10.37.33,1.59-.44,2.92,1.27,3.82,1,.5,4-.88,2.63-1.6Z"/><path d="M60.05,117.55h-.53c-.42.63-.85,1.25-1.28,1.87a90.76,90.76,0,0,0,19.1-2c6.22-1.41,12-4.51,17.77-7.15,9.21-4.24,20.71-8.36,25.56-18.11l-3.19.17c0,.73-.07,1.45,0,2.18,0,1.36,3.29.67,3.3-.42,0-.72,0-1.45,0-2.17.07-1.36-2.8-.6-3.18.17-4.5,9-15.18,12.85-23.79,16.82-5,2.3-10,5-15.35,6.47a76.42,76.42,0,0,1-18.94,2.17c-1.22,0-3.51,1.87-1.28,1.87h.53c1.24,0,3.5-1.87,1.28-1.87Z"/><path d="M93,111.5A10.73,10.73,0,0,0,95.18,108a32.11,32.11,0,0,1,3.94-6.08c2.79-3.72,5.08-7.75,7.63-11.63,3-4.65,6.47-8.92,11.76-11.09,5.59-2.3,12.55-1.28,15,4.81,3.54,8.75-4.8,20.11-13.2,22.58-4,1.17-8.78.5-13,1.25-3,.53-6,.5-9,1-2.36.4-4.58,1.22-7,1.49l1.09,1.18A3.56,3.56,0,0,0,94,109.65c.69-1.4-2.59-1-3.08-.06L89.82,111c-1,.83.4,1.26,1.09,1.18,7.49-.82,14.9-3,22.49-3.23,4.85-.15,9-.65,13.11-3.42,7.33-4.92,14.72-15.12,9.55-24-5-8.55-17.3-5.6-23.9-.9-4.63,3.3-7.64,8.18-10.61,12.92-1.89,3-3.79,6-5.94,8.87-.86,1.15-1.86,2.31-2.6,3.54-1,1.61-1.32,3.59-2.67,5s1.88,1.33,2.65.54Z"/></g></g></svg>