<svg xmlns="http://www.w3.org/2000/svg" viewBox="0 0 149.51 205.88"><defs><style>.cls-1{fill:#b4c995;}.cls-2{fill:#759161;}</style></defs><g id="Capa_2" data-name="Capa 2"><g id="Color"><path class="cls-1" d="M40.82,143.49a101,101,0,0,1,5.89-32.79c.69-2,2-4.25,4.07-4,5.53,8.7,4.3,20.12.88,29.83-1.07,3.06-2.37,6.3-1.58,9.45,1,4,5,6.44,8.59,8.43l20.89,11.5c1.57.87,3.41,2.49,2.6,4.09a3.37,3.37,0,0,1-1.74,1.35c-6.39,2.83-13.63,3-20.6,2.5-5.77-.38-11.78-1.23-16.51-4.56s-7.69-9.81-5.31-15.08C40,149.88,40.77,148.22,40.82,143.49Z"/><path class="cls-2" d="M69,134.66c1.18-4.85,6.2-11.73,5.8-16.12-.43-4.78-3.53-8.81-6-12.9s-4.54-9.17-2.67-13.59c5.5-.87,8.91,5.69,10.51,11l2.4,8c.31,1,.75,2.24,1.79,2.59s2-.28,2.93-.88c4-2.7,8-5.54,10.59-9.62,1.56-2.51,2.47-5.37,3.82-8,5.55-10.81,17.63-16.29,28.84-21,2.47-1,5.56-2,7.6-.26a5.5,5.5,0,0,1,1.63,4.19c.09,7.22-6.83,12.28-13,16.05h0c-8,4.87-16.89,8.14-24.76,13.23-3,2-22.28,17.71-8.93,17.13l25.9-1.13c2,3.14.6,7.56-2.18,10.07S106.72,137,103.11,138l-11.16,3c-2.42.66-5,1.33-7.41.66-1-.28-15.6-3.9-15.28-3.37A4.88,4.88,0,0,1,69,134.66Z"/><path class="cls-1" d="M139.07,55.89A48,48,0,0,1,125.14,68c-5.27,3.16-12,4.59-16.94,8S100.42,82.12,94,82.48c-5.81.32-11.66-1.07-17.2-2.7a60.44,60.44,0,0,1-15.23-6.89C59.8,71.8,50.29,62.39,49.31,62.56c14.3-2.42,28,5.53,41.07,11.88a4.88,4.88,0,0,0,2.18.65A4.55,4.55,0,0,0,95,74a41.85,41.85,0,0,0,5.52-4.69c3.19-3.23,5.83-7,9.06-10.17C118.49,50.33,131,46.35,143,42.67,144.12,47.3,141.92,52.09,139.07,55.89Z"/><path class="cls-2" d="M81.77,40.41A151.57,151.57,0,0,1,84,23.17c1.1-6,3.2-13.69,6.44-18.84a2.23,2.23,0,0,1,1-1c1.2-.46,2.15,1.06,2.54,2.28q3.5,11,7,21.94c2.79,8.77,7.85,22.68.66,30.22-2.12,2.22-4.82,4.11-7.87,4.35C89.17,62.5,85,59,83.18,54.81s-1.76-8.93-1.47-13.49Z"/></g><g id="Object"><path d="M96.31,59.07l-.48-.21a1.21,1.21,0,0,0-1.58.59c-.39.91.11,1.27.26,2.15.47,2.64,1.4,4.88,1.59,7.58.18,2.54.28,5.08.28,7.63a79.06,79.06,0,0,1-3.75,24.67c-5,15.28-17.28,27.26-30.92,35.33-7,4.14-14.38,7.47-21.24,11.83-7.32,4.65-14.29,9.83-21.37,14.83C9.57,170.2-2.43,179.86.43,193.12c2.32,10.74,14,16.36,23.35,10.23,1.29-.84-.1-2.78-1.38-1.94-8.43,5.49-18.51-.34-19.84-9.9-1.41-10.07,6.89-18,14.21-23.44s14.89-10.81,22.54-15.84c7.91-5.2,16.51-9.06,24.58-13.95,13.13-8,25-19.64,30.37-34.24a76.53,76.53,0,0,0,4.36-22.36,109.85,109.85,0,0,0-.08-11.76,33.35,33.35,0,0,0-.75-6.22c.11.45-1.23-3.57-1.36-3.26L94.85,61l.48.21a1.19,1.19,0,0,0,1-2.17Z"/><path d="M96,60.7C89.55,58.9,83.67,51.92,83,45.22c-.57-6,1.57-12.61,3.25-18.31,2.51-8.53,4-17,3.56-25.87l-2.17.79c1.39,1.5,1.8,4.16,2.58,6,1,2.36,2.1,4.67,3.07,7a173.61,173.61,0,0,1,5.93,16.51,39.81,39.81,0,0,1,1.54,15.91,30.12,30.12,0,0,1-2,8.22c-.13.32-3.18,4.75-2.75,5.31-.94-1.21-2.9.17-2,1.38l.32.4A1.24,1.24,0,0,0,95.8,63c3.09-.73,4.86-5.63,5.71-8.16a38.87,38.87,0,0,0,1.57-17.63c-1-6.65-3.71-13.11-6-19.37C95.67,14.19,94,10.64,92.5,7,91.62,5,91.18,2.13,89.62.45a1.2,1.2,0,0,0-2.16.8c.74,13.88-5.2,25.93-6.72,39.48-1.09,9.72,5.35,19.66,14.81,22.33,1.48.41,1.87-1.94.4-2.36Z"/><path d="M90.59,4.74l-.18-.15a1.21,1.21,0,0,0-1.93.73c-1.13,4.47,1.29,10,2,14.43A59.34,59.34,0,0,1,90.83,35c-.49,5.09.12,9.86.43,15,.26,4.27.16,9.07,2.81,12.67.57.77,2.07.59,2.15-.49l0-.41c.13-1.52-2.23-1.94-2.35-.4l0,.41L96,61.24c-2.87-3.91-2.26-10.42-2.67-14.94a93.1,93.1,0,0,1,.11-14.56,51,51,0,0,0-.4-10.62c-.63-4.6-3.38-10.83-2.23-15.41l-1.93.73.18.15c1.18,1,2.69-.85,1.51-1.85Z"/><path d="M100,72.72c1.26-2,2-4.28,3.57-6.17a40.23,40.23,0,0,1,5.29-4.81c3.59-3,7.19-6,10.94-8.79,8.7-6.45,18.18-7.45,28.66-7.57l-.8-2.16c-3.17,2.62-7.58,3.5-10.8,6.23-4.14,3.5-7.09,8.16-11.07,11.84-6.66,6.17-17.87,17.7-27.09,9.93a1.19,1.19,0,0,0-1.16-.2l-.27.12c-1.4.62-.59,2.87.82,2.25.1,0,6.54,3,8.11,3,5.32,0,10.17-4,14.1-7.15a99,99,0,0,0,13.54-13.23,31,31,0,0,1,8-7.15c2.28-1.31,5.18-2,7.21-3.73a1.2,1.2,0,0,0-.8-2.16c-10.88.11-20.83,1.32-29.83,8-4.49,3.33-8.86,6.92-13.09,10.58-3.56,3.09-5.13,6.31-7.51,10.16C97,73,99.19,74,100,72.72Z"/><path d="M100.78,73.84c.16-.47,4.2-1.41,4.83-1.68a49.62,49.62,0,0,0,5.11-2.27A50.28,50.28,0,0,0,121.08,62c3.34-3.34,6.28-6.79,9.93-9.82a19.55,19.55,0,0,1,6.73-4c2.35-.79,4.84-1,7.11-2.08-.37-.7-.74-1.4-1.1-2.1l-.48.33c-1.27.87.12,2.82,1.38,1.95l.48-.33c1.08-.75.15-2.67-1.1-2.1-4.41,2-9.08,2-13,5.16a74.31,74.31,0,0,0-9.25,8.75c-3.88,4.3-8.88,8.58-14.18,11-2.28,1-4.73,1.66-7,2.62-1.2.51-1.54.22-2,1.49-.5,1.44,1.67,2.44,2.17,1Z"/><path d="M97.42,81.67c-5.52-7.74-13.16-14.57-22-18.31-9.29-3.94-18.63-1.62-28.3-.33a1.2,1.2,0,0,0-.1,2.36c10.73,2.28,16.62,13.27,26.05,18,7.61,3.81,16.33,4.22,23.84.48a1.19,1.19,0,0,0-.81-2.24c-7.83,2.56-19.38-5.64-26-9.09C66.49,70.6,62.75,68.83,59,67.07c-2.57-1.2-5.79-3.35-8.69-2.43-1.47.46-.65,2.7.81,2.24,3.15-1,10.42,4,13.35,5.36,4,1.87,8.16,4,12,6.11,5.45,3.08,14,7.64,20.53,5.52l-.81-2.24c-10,5-20.56,1.53-28.84-5.16-6.22-5-11.6-11.68-19.84-13.43l-.09,2.36c9.06-1.2,18.4-3.56,27.1.14,8.37,3.55,15.75,10.15,21,17.51a1.2,1.2,0,0,0,2-1.38Z"/><path d="M94.91,102.65C94.83,99,99.64,94.41,102,92.14a64.48,64.48,0,0,1,11.8-8.78c8.45-4.89,19-12.56,29.18-12.11-.17-.72-.33-1.44-.49-2.16-3.36,2.93-6.21,5.26-9,8.89a114.84,114.84,0,0,1-8,9.6,60,60,0,0,1-12.07,10.06c-4.67,2.88-13.24,7.18-19,4.26l-.39,2.28,1.4-.19c1.53-.21,1.32-2.59-.21-2.38l-1.4.19a1.21,1.21,0,0,0-.39,2.28c3.33,1.69,8.33,1,11.81.1,5.67-1.5,11.27-5.42,15.78-9a63.91,63.91,0,0,0,10.25-10.67A91.86,91.86,0,0,1,143.91,71c.67-.58.66-2.1-.49-2.15-11.12-.48-22.69,7.49-31.77,13A59,59,0,0,0,98,92.83c-2.15,2.46-5.55,6.56-5.47,10,0,1.54,2.41,1.32,2.38-.21Z"/><path d="M95.39,102.73c-.06-.62,11.39-5.37,13.06-6.43,3.23-2,6.43-4.39,9.45-6.73C125,84.08,129.79,75.92,138.77,73l-1.6-1,0,.4a1.2,1.2,0,0,0,2.38-.21l0-.4a1.21,1.21,0,0,0-1.6-1c-8.67,2.79-13.27,9.94-19.84,15.6-7.49,6.44-16.42,9.92-24.64,15.13a1.2,1.2,0,0,0-.5,1.08l0,.35a1.2,1.2,0,0,0,2.38-.21Z"/><path d="M79.78,121.26c-11.49-2.52-9.15-16-10.85-24.57-.65-3.31-1.42-6.7-2.32-10C65.46,82.6,63,80.27,61.1,76.57l-1.62,1.49C66.7,81.12,73.32,89.9,77.36,96.32a29.37,29.37,0,0,1,4.72,12.11c.4,3.52.63,10.1-2.11,12.74-1.1,1.06.75,2.56,1.85,1.51,6-5.77,2.44-18.32-.73-24.5a57.63,57.63,0,0,0-8.86-12.41c-3.21-3.51-7.33-8-11.76-9.88-.86-.37-2.1.52-1.62,1.49.93,1.85,2.29,3.21,3.4,4.93,1.57,2.46,2.11,5.34,2.76,8.13a93.19,93.19,0,0,1,2.1,15.72c.49,7.38,4.47,15.74,12.27,17.45,1.51.33,1.9-2,.4-2.35Z"/><path d="M62.43,79c-.68,2.28,3.72,6.32,4.84,8.1A52.94,52.94,0,0,1,74.18,104c1,4.63,1.17,17.06,7.91,18.07a1.19,1.19,0,0,0,.4-2.35c-4-.61-4.09-7.79-4.6-10.43-.64-3.36-1.35-7-2.29-10.29a53.9,53.9,0,0,0-4.17-9.43c-.67-1.32-1.42-2.6-2.21-3.85-.56-.89-4.69-5.47-4.44-6.32.44-1.47-1.92-1.86-2.35-.4Z"/><path d="M70.61,135.25c6.56-8.75,16.46-9.83,26.7-9.6,8,.18,16.67,2.66,24.47-.27-.36-.7-.73-1.4-1.1-2.1-4.14,2.76-8.08,5.76-12,8.83-4.15,3.24-8.63,5-13.49,6.91-9.46,3.7-20.49,2-27.7-5.46-1.07-1.1-2.58.76-1.52,1.85,6.72,6.91,16.47,9.14,25.69,7.2,12.13-2.56,20.43-10.74,30.4-17.38a1.2,1.2,0,0,0-1.1-2.1c-5.42,2-11,1-16.55.46A92.2,92.2,0,0,0,90,123.32c-8.6.53-16,3.45-21.27,10.42-.92,1.22.92,2.74,1.85,1.51Z"/><path d="M68.83,135.52c8.5-.49,16.46,1,25-.27,7.69-1.13,15.5-3.5,21.88-8a1.2,1.2,0,0,0-1.38-2c-7,5-15.71,6.89-24,8.09-7.24,1-14.38-.64-21.64-.22-1.53.09-1.32,2.47.21,2.38Z"/><path d="M47.5,143.75c-5.54-.47-5.85-11.42-5.39-15.49s2.26-7.64,3.42-11.48c2.31-7.68,2.8-14.87,3.53-22.76l-2.15.49c5.3,6,8,16.59,9,24.22,1.19,8.49-1.74,21-9.37,26.12.59.49,1.18,1,1.78,1.46.08-.2.16-.41.25-.61.57-1.42-1.6-2.42-2.18-1-.08.21-.16.41-.25.62a1.21,1.21,0,0,0,1.78,1.47c4.05-2.75,5.45-6.22,7.46-10.55,2.17-4.66,3.57-8.67,3.31-14a48.46,48.46,0,0,0-3.14-15.39c-1.77-4.41-3.52-10.15-6.71-13.77-.62-.7-2-.64-2.15.49-.55,5.95-.61,11.53-2.14,17.36-1.39,5.31-3.84,10.55-4.67,16s-.53,18.48,7.2,19.14c1.52.13,1.94-2.22.4-2.35Z"/><path d="M48,96.28c.51,10.35,2.94,21.37.36,31.59-1.57,6.21-6.69,12.54-3.24,19,.72,1.36,2.66,0,1.95-1.38-2.58-4.84,1.41-9.57,2.87-14a38.45,38.45,0,0,0,1.69-9.21c.63-8.77-.82-17.44-1.25-26.18-.08-1.54-2.45-1.32-2.38.21Z"/><path d="M34.69,156c5-.93,9.71-1.87,14.81-.89,5.48,1,10.74,3.46,16,5.16,4.18,1.34,8.49,2.19,12.73,3.33,3.13.85,6.82,2.6,10.13,2a1.2,1.2,0,0,0-.21-2.38c-4.35.34-8.65,4.05-12.87,5.38-6,1.87-12.18,3.62-18.49,2.68-4.29-.64-7.82-2.81-11.48-5a21.66,21.66,0,0,1-9.66-11.76L34.07,156c5,1.56,9.38,5,14.34,6.86a54.25,54.25,0,0,0,12.88,3,107.37,107.37,0,0,0,12.68.51c3.55,0,7.78.69,11.14-.7,1.42-.59.61-2.84-.81-2.25-3.16,1.31-7.7.61-11,.55a103.29,103.29,0,0,1-12.93-.62A55,55,0,0,1,47.78,160c-4.31-1.83-8.25-4.82-12.72-6.2-.92-.28-2,.45-1.62,1.5,1.86,4.81,2.76,7.23,7.11,10.58,3.69,2.84,8.28,5.82,12.75,7.14a29.75,29.75,0,0,0,14.82,0c3.29-.78,6.56-1.69,9.77-2.77s7.36-4.43,10.51-4.67l-.21-2.38c-3.77.63-8.66-1.81-12.31-2.73-5.56-1.41-11-3-16.42-4.84-4-1.37-7.9-2.89-12.11-3.35s-8.61.48-12.87,1.27c-1.5.28-1.3,2.66.21,2.38Z"/></g></g></svg>