<svg xmlns="http://www.w3.org/2000/svg" viewBox="0 0 134.77 179.57"><defs><style>.cls-1{fill:#e0d070;}</style></defs><g id="Capa_2" data-name="Capa 2"><g id="Color"><path class="cls-1" d="M.26,122.61a10.2,10.2,0,0,0,1.17,7.66c3.78,5.64,12.42,3.93,18.64,1.19A167.61,167.61,0,0,0,59.69,107c-.63,7,1.93,14,5.08,20.32C69,135.8,75.13,144.33,84.26,147s21-3.85,20.31-13.35c-.5-6.41-6.08-11.12-11.41-14.72a168.22,168.22,0,0,0-34.45-17.9c11.25-4.23,23.72-.93,35.68.35s26.2-.74,32.1-11.21a7.11,7.11,0,0,0,1.12-3.76c-.17-3-3.21-4.9-5.89-6.27-6.46-3.3-13.34-6.69-20.58-6.12-7.54.59-14,5.36-20,9.95L61.57,98.91c4.1-10.78,13.3-18.72,19.26-28.59,11-18.1,9.55-42.86-3.35-59.62-1-1.24-2.23-2.56-3.8-2.45A4.91,4.91,0,0,0,71,9.73,59.44,59.44,0,0,0,51.34,49.78c-1.06,16,4.39,31.56,9.75,46.64C58.32,85.9,54.68,75.26,47.55,67.05s-18.49-13.56-29-10.84a5.51,5.51,0,0,0-2.82,1.43,5.35,5.35,0,0,0-1,1.88c-2.9,8.13-.22,17.14,4.81,23.81,4,5.35,15.06,9.72,16.17,16.87,1.37,8.85-10.06,5.63-16.39,7C11,108.91,2.1,113.56.26,122.61Z"/></g><g id="Object"><path d="M72.55,45.1C66.2,54.1,65,68,63,78.58c-2.12,11.37-3.92,22.69-4.9,34.22-1,11.93-2.49,23.87-2.77,35.85-.22,9.56-.21,21.45,3.33,30.44.34.87,2.44.41,2.8-.23l.18-.32c.49-.87-2.34-1-2.83-.16l-.19.32,2.81-.22c-1.82-4.62-2.15-10.61-2.74-15.57a107.9,107.9,0,0,1-.37-17C58.72,134.8,60,123.69,61,112.57A356.84,356.84,0,0,1,66.3,76.22c1.9-10,3.13-22.51,9.08-31,.54-.76-2.25-1-2.83-.16Z"/><path d="M63.42,86.68c-2.29-7.39-4.78-14.67-7-22.1-2.38-8-2-14.5-1-22.68.44-3.76.83-7.45,1.56-11.17,1.13-5.76,4.21-8.29,8.41-12,5.89-5.15,9.92-11.82,15-17.72l-2.67,0c2.62,6.65,4.77,13.16,8.1,19.56C90.57,29.89,91,38,88.2,48,86.07,55.6,81.73,62,78,68.85c-4,7.29-9.45,14.8-16.34,19.65l2.52.32,0-.38c-.06-1-3-.79-2.9.24,0,.12,0,.25,0,.37.06.93,2.05.65,2.52.32A56.66,56.66,0,0,0,79,72.67C83.58,65,88.6,56.78,91,48.15S94,32.46,90.52,24.26c-3.36-8-6.93-15.77-10.09-23.79-.31-.78-2.24-.46-2.67,0-5.52,6.46-10,13.37-16.46,19-6.2,5.35-7.33,10.2-8.38,18.16-1.12,8.5-2.45,16.61-.06,25,2.32,8.21,5.13,16.15,7.65,24.27.32,1,3.17.63,2.91-.23Z"/><path d="M61.14,97.2c-7-1.29-14.3-1.36-21.3-2.77C34,93.24,24.88,90.07,20,86.34,14.19,81.84,13.47,76,14,69.23a48.8,48.8,0,0,0-.19-8.8c-.31-2.76-2.1-5.86,1.2-6.31,1.81-.24,4.74.71,6.66.9,3.4.34,6.8.36,10.2.67,6.72.61,11.24,7.39,14.06,13.12S50.57,80.62,53.7,86.2c2,3.52,3.93,9.37,7.2,11.92.72.56,3.48-.13,2.45-.94-2.65-2.06-4-6.77-5.59-9.55a97.44,97.44,0,0,1-5.14-9.95c-3.07-7.24-6.08-15.77-12.3-21.07-4-3.4-11-2.54-15.86-3-4.07-.37-10.24-2.32-14.15-.17a.67.67,0,0,0-.38.54c0,2.8.89,5.69,1.11,8.5.28,3.62-.38,7-.49,10.62a17.51,17.51,0,0,0,7,14.15c12.41,9.17,27.79,8.66,42.2,11.3,1,.19,3.23-1,1.36-1.37Z"/><path d="M62.66,102.5C68.4,99.92,72.94,95.74,77,91c4.51-5.28,7.82-11.91,14.53-14.9,9.61-4.28,20.26.32,29.18,3.91,2.53,1,6.53,1.51,8.78,3,2.08,1.36,1.27.2-.25,2.1-3.5,4.39-5.44,9.45-9.76,13.26-7.67,6.76-16.29,6.59-25.93,5.52-11.08-1.23-21.88-2.63-33-1.81-1.74.13-1.64,1.58.12,1.45,15-1.11,29.76,3.41,44.75,2.51a24.42,24.42,0,0,0,16.36-6.79c4.94-4.55,7-11.58,12.56-15.12.21-.13.56-.46.32-.73-1.2-1.36-2.95-1.57-4.66-2.14-3.85-1.27-7.56-2.53-11.29-4.11-7.21-3-15-4.76-22.81-3.75-16.6,2.14-20.47,21.51-34.83,28-1.74.78.57,1.59,1.56,1.14Z"/><path d="M60,101.42c-8.51,1-16.63.79-25.18.88-6,.06-12,.08-17,3.57S9.09,115,7,120.55C5.77,123.69.81,131,4.22,133.86c2.47,2.06,7.67,2.08,10.75,2.33,5.68.48,11.34.28,16.57-2.07,7.16-3.21,10.75-7.79,16.14-13.15A79.44,79.44,0,0,0,61,102.75l-1.74.65h.43c1.35,0,2.64-1.46.66-1.47h-.43c-.58,0-1.44.07-1.75.65-2.69,5-6.34,9.43-9.66,14a83,83,0,0,1-9.89,11.15c-5.36,5-12.83,7.15-20,7.06-3.81,0-12.41.36-12.28-5,.09-3.57,3-8.78,4.54-12,3.38-7,9.08-12.56,16.95-13.7,5.88-.85,11.94-.1,17.84.08,4.92.14,9.59-.7,14.47-1.29,1.71-.21,1.64-1.67-.12-1.45Z"/><path d="M60.46,103.45c3.39,3.13,8.73,4,12.83,6.06,5.62,2.76,12.19,5.24,17.42,8.61s7.2,8.71,9.15,14.33a28.13,28.13,0,0,1,1.91,8.2c0,1.59.22,7.1-.73,8.18-1.52,1.74-10.23-1.25-12.9-1.74-3.25-.6-8-.69-10.79-2.55-2.65-1.75-4.61-5.83-5.84-8.68A137.88,137.88,0,0,1,65,119c-1.27-4.52-1.13-9.19-1.71-13.83l-1.78.85H62c1.34,0,2.63-1.48.66-1.47H62.2c-.4,0-1.88.1-1.78.85.71,5.76.67,11,2.57,16.53,2.25,6.63,4.77,14.58,8.91,20.28,4,5.46,9.87,5.34,16.12,6.49,3.89.72,8.38,2.58,12.22,2.84a4.84,4.84,0,0,0,2.61-.3c2.3-1.42,1.89-8.56,1.83-10.82-.15-5.18-2.73-12.5-5.38-17-3.13-5.32-8-7.16-13.28-9.62-4-1.85-7.77-4.08-11.74-6-3.62-1.71-8.38-2.55-11.37-5.32-.67-.62-3.43,0-2.45.94Z"/><path d="M61,104.72c2.52,1,3.63,5,5.3,7,2.28,2.71,5,5.1,7.44,7.65s4.83,5,7.39,7.47c1.75,1.65,5,3.73,6.2,5.78.48.84,3.32.35,2.77-.61-1.23-2.12-4.58-4.32-6.22-5.91-2.57-2.49-5.1-5-7.57-7.58-3.18-3.35-6.88-6.35-9.34-10.31-1.29-2.08-1.66-3.76-4-4.68-.85-.34-3.48.6-2,1.19Z"/><path d="M55.27,103.39c-4.21,5.67-14,10.93-20.52,13.23-3.32,1.17-9.64,1.51-11.6,4.87-.49.85,2.33,1,2.84.16,1.15-2,6.54-2.75,8.45-3.33a38.6,38.6,0,0,0,7.26-3.15c5.26-2.85,12.48-6.33,16.14-11.25.8-1.07-2-1.27-2.57-.53Z"/><path d="M29.29,74.84c1.14,2.89,3.62,4.69,6,6.64,3.61,3,7.2,6.09,10.82,9.11,6.46,5.38,14,7.83,22,10,1,.29,3.2-.87,1.37-1.37-8.51-2.36-16-5.38-22.72-11.18-4.4-3.78-12.46-8.32-14.64-13.86-.34-.86-3.19-.47-2.77.61Z"/><path d="M65.88,102.16c.88-1.12,4.07-1,5.38-1.42,3.89-1.11,7.62-3.08,11.45-4.42,9.21-3.2,19.51-7.86,29.47-7,1.37.12,2.62-1.3.66-1.46C103.25,87,93.33,90.88,84.44,94c-5.28,1.86-10.5,4.38-15.9,5.79-1.56.4-4.13.41-5.23,1.82-.82,1,2,1.26,2.57.53Z"/></g></g></svg>