<svg xmlns="http://www.w3.org/2000/svg" viewBox="0 0 155.19 163.05"><defs><style>.cls-1{fill:#b4c995;}.cls-2{fill:#759161;}</style></defs><g id="Capa_2" data-name="Capa 2"><g id="Color"><path class="cls-1" d="M88,90.22a32.12,32.12,0,0,1,1.38-11.76c7.71-26.72,35.55-41.86,51.29-64.77L150.19,68c1,5.6,2,11.35.94,17C148.52,99.15,131.85,116.85,118,121,99.68,126.44,89.37,105.68,88,90.22Z"/><path class="cls-2" d="M7.23,73.19c-5-3.82-6.4-10.93-5.08-17S7.07,44.69,10.7,39.6A391.64,391.64,0,0,1,37.16,6.51c2.22,0,18.06,29.15,20,32.05a47.11,47.11,0,0,1,4.33,7.63,24.23,24.23,0,0,1-.78,20,10.53,10.53,0,0,1-4.87,5.19,10.47,10.47,0,0,1-5.5.45,24.41,24.41,0,0,1-14-7C30,73.65,17.33,81,7.23,73.19Z"/></g><g id="Object"><path d="M37.38,3.05C26.44,7.55,17.68,18.7,11.29,28.3S-2.84,51.85,1.05,63.9C4,72.91,14.3,77.61,23.3,76.51,33.92,75.22,38.35,62.59,39,53.36H36.44c-.08,5.18.25,10.15,3.7,14.34C42.85,71,47,73.12,51.05,74.34c3.84,1.18,8.12,1.9,11.47-.76,3.84-3.06,5.29-7.71,5.7-12.39.93-10.6-3.67-21.36-9-30.31-3.09-5.17-7.91-8.5-11.7-13C44.24,13.89,40.4,8.53,39,3.57a1.28,1.28,0,0,0-2.46.68c1.79,6.12,6.53,12.84,11,17.29,3.62,3.6,7.29,6.75,9.86,11.25a79.33,79.33,0,0,1,6.17,13.13C66,53.29,68.92,70,58.44,72.58c-4.45,1.1-10.37-1.65-13.88-4.24-5.05-3.72-5.66-9.18-5.56-15,0-1.66-2.44-1.62-2.56,0-.65,9.22-5.2,21-16,20.74s-18.64-8-17.69-19c.9-10.39,7-20.27,12.86-28.59,5.51-7.81,13.42-17.3,22.46-21,1.5-.62.84-3.09-.68-2.46Z"/><path d="M37.18,3C35,5.14,35.37,11,35.12,13.63a179.91,179.91,0,0,0-.87,18c.1,12.44,2.06,24.83,4.35,37A131.1,131.1,0,0,0,50.22,103.5c2.69,5.38,5.46,10.76,8.56,15.92s7.22,9.42,10,14.53c.79,1.44,3,.15,2.21-1.29-2.43-4.46-6.12-8.3-8.84-12.62-2.92-4.65-5.45-9.53-8-14.41A133.8,133.8,0,0,1,41.88,72c-2.52-11.66-4.66-24-5-35.91A134.62,134.62,0,0,1,37,20.52c.24-2.83.52-5.67.79-8.5.16-1.68-.14-5.94,1.17-7.2S38.37,1.87,37.18,3Z"/><path d="M38.46,58.83c-3.34-5.65-7.7-10.4-11.61-15.62-2-2.73-3.74-5.68-5.7-8.46a47.39,47.39,0,0,1-5.22-8.51c-.63-1.5-3.1-.84-2.47.67,2.37,5.67,6.62,11.16,10.14,16.18,4.08,5.81,9,10.9,12.65,17a1.28,1.28,0,0,0,2.21-1.29Z"/><path d="M35.76,47.43l-.08.25L38,47.37a81.76,81.76,0,0,1-8.36-16c-2-4.81-4.77-9.71-5.69-14.91-.25-1.42-2.56-1.08-2.51.34v.24c.06,1.64,2.61,1.65,2.55,0v-.24l-2.5.34c1,5.6,4,11.07,6.19,16.27a79.4,79.4,0,0,0,8.12,15.22,1.29,1.29,0,0,0,2.33-.31l.08-.24c.53-1.56-1.94-2.23-2.46-.68Z"/><path d="M27.31,10.49c.24,3.12,2.08,6.62,3.4,9.45a41,41,0,0,1,2,5.23,3,3,0,0,0,1.45,2.14,1.28,1.28,0,0,0,1.29-2.2c-.4-.24-.68-2.23-.85-2.68-.42-1.14-.94-2.24-1.46-3.33-.67-1.42-1.21-2.85-1.74-4.31-.46-1.29-1.42-2.93-1.53-4.3-.12-1.63-2.68-1.64-2.55,0Z"/><path d="M35.87,24.25l-.24-.07c.25.63.51,1.25.76,1.88.71-1,1.64-1.92,2.42-2.91s1.54-2.12,2.44-3.08c.62-.67,1.32-1.27,2-1.93.4-.41.85-1.19,1.38-1.43,1.5-.66.2-2.86-1.29-2.2a5.33,5.33,0,0,0-1.51,1.41c-.75.81-1.58,1.53-2.34,2.34s-1.54,1.93-2.29,2.9c-1,1.24-2.09,2.31-3,3.61A1.29,1.29,0,0,0,35,26.65l.24.06a1.28,1.28,0,0,0,.68-2.46Z"/><path d="M38.82,47.32c2.94-4.61,5.76-9.26,8.79-13.82A56.43,56.43,0,0,0,52.84,24c.63-1.51-1.84-2.18-2.46-.68a70.31,70.31,0,0,1-5.7,10q-4,6.38-8.06,12.71c-.89,1.39,1.32,2.68,2.2,1.29Z"/><path d="M39,58.91a184.33,184.33,0,0,0,21-25l-2.33-.3.07.26a1.28,1.28,0,0,0,2.46-.68l-.07-.26a1.29,1.29,0,0,0-2.33-.31,180.63,180.63,0,0,1-20.57,24.5c-1.15,1.17.66,3,1.81,1.8Z"/><path d="M42.45,67.28c2.1-.74,3.69-2.78,5.29-4.29,2.48-2.34,4.63-5,7.06-7.38,4.14-4,6.19-8.08,8.51-13.4.65-1.5-1.55-2.8-2.2-1.29-2,4.69-3.9,8.93-7.68,12.5-1.84,1.74-3.49,3.72-5.28,5.53C46.53,60.59,44,64,41.77,64.82c-1.54.54-.88,3,.68,2.46Z"/><path d="M49.28,71.87l.09.32a1.28,1.28,0,0,0,1.87.77c2.06-1.23,3.76-3.18,5.67-4.62a37,37,0,0,0,5.36-5,21.66,21.66,0,0,0,3.67-5.06c.71-1.47.65-2.87,1.16-4.36s-1.94-2.23-2.47-.68c-.42,1.24-.39,2.55-.89,3.75a19.28,19.28,0,0,1-4.15,5.45,40.19,40.19,0,0,1-4.91,4.31c-1.63,1.21-3,2.92-4.73,4l1.88.76-.08-.32a1.28,1.28,0,0,0-2.47.68Z"/><path d="M7.62,36.05C9.19,42.62,13.45,47.46,18.19,52c2.87,2.73,5.44,5.69,8.08,8.63,1.83,2,5.58,4.25,6.56,6.88.58,1.52,3.05.86,2.47-.68-.77-2.06-2.75-3.57-4.29-5.06-2.64-2.56-5-5.37-7.49-8C18.15,48,12,43.38,10.08,35.37c-.38-1.59-2.85-.92-2.46.68Z"/><path d="M2.13,48.48c1.49,5.37,5.24,10.07,9.26,13.8,4.86,4.51,10.6,8.5,15.86,12.59a1.3,1.3,0,0,0,2.14-.56l.06-.25A1.28,1.28,0,0,0,27,73.39l-.07.24,2.14-.57C24.63,69.63,20.37,66,15.9,62.6,11,58.91,6.28,53.89,4.6,47.8a1.28,1.28,0,0,0-2.47.68Z"/><path d="M134.59.65l-.07-.18c-.41-1.09,1.72,0,1.95.33C147.24,14.92,153.58,34,154.86,51.5c1.47,20.32-1.52,46.91-18.31,60.75-6.59,5.44-16.43,9.7-25,10.37s-15.73-4.21-20.79-10.68c-5.45-7-5.64-15.29-5.06-23.79.34-5.07,1.89-9.54,3.63-14.3,2-5.5,3.88-10.9,7.21-15.77,3.68-5.38,7.52-10.75,11.48-15.94,3.65-4.79,7.86-9.13,11.54-13.87s7.61-8.59,11-13.38a29.41,29.41,0,0,0,3.84-7.32c.83-2.48.39-4.69.6-7.22l2.22,1.19c-.07.17-.14.35-.2.53-.36,1-2.51-.42-2.22-1.19.07-.17.13-.35.2-.53.37-1,2.28.39,2.22,1.19-.27,3.11.12,5.6-1.14,8.6a46.84,46.84,0,0,1-7.34,11.67c-5.64,6.76-11.68,13.14-17.18,20C99.36,57.1,87.7,74.68,87.6,94.9c0,11.14,6.1,24.21,18.53,25.85,8.58,1.13,19.22-3.64,26.18-8.42,17-11.64,20.28-35.31,20.56-54.31a91.23,91.23,0,0,0-5.64-32.87c-3-8.24-7.11-17.19-12.47-24.22l2,.33.07.17c.38,1-1.9,0-2.19-.78Z"/><path d="M138.51,3.74c-.36,7.65-1,15.24-1.08,22.9a165.74,165.74,0,0,1-1.38,22.27,165.67,165.67,0,0,1-12.69,42.93c-6.21,13.91-14.68,26.82-23.82,39-8.76,11.64-18.34,22.66-29.48,32.1-.73.63-2.69-1-2.09-1.51,11.14-9.45,20.72-20.47,29.48-32.11s17-24.12,23.13-37.45a164,164,0,0,0,13.26-44.12,165.73,165.73,0,0,0,1.37-22.27c.1-7.66.72-15.25,1.09-22.9,0-.89,2.25.31,2.21,1.19Z"/><path d="M141.68,14.55l0-.15c.27-.71,2.42.62,2.16,1.36-1.95,5.45-3.08,11.24-5.64,16.47-.23.46-1.22-.07-1.43-.24-1.82-1.45-3.1-3.72-4.27-5.72-.87-1.5-1.83-3-2.7-4.46-.48-.81-.66-2.14-1.17-2.84-1-1.36,1.15-.91,1.71-.13,1.15,1.59,1.86,3.68,2.88,5.43,1.21,2.07,2.39,5.14,4.31,6.68l-1.42-.24c2.51-5.12,3.61-10.81,5.51-16.14l2.15,1.35,0,.15c-.28.71-2.44-.62-2.09-1.52Z"/><path d="M149.07,26.06c-3.09,5.07-6.26,10.45-8.91,15.75-.77,1.55-1.57,5-3.78,4.77-.56,0-1.49-.69-1.56-1.29-.67-5.09-3.85-9.55-7-13.37-1.92-2.31-3-4.93-4.61-7.43-.74-1.16,1.47-.46,1.86.1l.15.2c1,1.37-1.15.92-1.71.14l-.15-.21,1.87.1c1.17,1.82,2,4,3.28,5.74s2.91,3.21,4.13,5.05A26.46,26.46,0,0,1,137,46.07l-1.56-1.3c1,.1,3.86-6.66,4.29-7.37,2.53-4.23,4.69-8.66,7.26-12.86.44-.74,2.57.72,2.08,1.52Z"/><path d="M152,35.83c1,1.13.28,2-.44,3.14a114.51,114.51,0,0,1-6.88,9.63c-2.43,3.11-4.82,6.37-7.38,9.35-1,1.14-1.82,2.21-3.46,1.81-1.29-.31-1.64-1.26-2.22-2.3-1.91-3.42-3.87-6.63-6-9.92a162.09,162.09,0,0,1-9.64-16l2,.33.22.5c.59,1.32-1.68.42-2-.34l-.21-.49c-.6-1.35,1.65-.37,2,.33,4.2,8.35,10.35,15.5,14.7,23.74.52,1,.49,2,1.43,1.86.62-.08,1.4-1.31,1.8-1.81,1.94-2.42,3.76-5,5.72-7.37.87-1.08,9.41-11.53,8.69-12.34-1.11-1.25,1.1-.83,1.71-.14Z"/><path d="M154.5,50.78c-4.85,5.32-9.77,10.63-14.56,16A50.7,50.7,0,0,1,133.43,73c-.86.66-3.07,3-4.35,3.15a2,2,0,0,1-1.81-1.31c-.44-2.6-2.68-5.34-3.79-7.73-1.63-3.5-3.73-6.72-5.45-10.16-1.5-3-3.42-5.33-4.41-8.57-.94-3-1.53-6.21-2.43-9.25l2.19.79c0,.23.09.46.13.7.2,1.14-2,0-2.19-.79,0-.23-.08-.47-.13-.7-.21-1.2,2,.08,2.19.79.83,2.82,1.35,5.75,2.23,8.59,1.21,3.91,3.69,7.7,5.63,11.35,1.67,3.17,3.47,6.25,5.09,9.46,1,2,2.74,4,3.13,6.3l-1.8-1.31c1-.09,5-4,5.58-4.52a77.76,77.76,0,0,0,6-6.16c4.52-4.7,8.76-9.58,13.15-14.4.62-.69,2.66.89,2.09,1.52Z"/><path d="M154.64,67.93c-4.27,6.9-10.48,10-16.92,14.58a103.35,103.35,0,0,1-9.41,5.75c-2.25,1.26-4.3,3.82-6.83,4.41a2,2,0,0,1-1.8-1.32c-.39-4.21-2.67-8.14-4.37-11.95s-2.41-7.87-3.92-11.81-3.18-8-4.8-12c-1.13-2.81-1.92-6.46-1.13-9.47.26-1,2.44.37,2.22,1.19-1.14,4.34,1,8.51,2.61,12.38a101.54,101.54,0,0,1,4.13,11.2,79,79,0,0,0,3.93,11.22c1.46,3.27,3.18,6.44,3.52,10.07l-1.81-1.31c2.41-.56,5.13-3.65,7.41-4.8a67,67,0,0,0,8.43-5.26c6.26-4.43,12.48-7.63,16.65-14.36.46-.73,2.58.73,2.09,1.52Z"/><path d="M152.5,83.89c-2.57,1.66-4.78,4-7.29,5.82-3.37,2.37-7.17,4-10.79,5.94-3.35,1.79-6.69,3.43-10.13,5-2.4,1.07-4.17,3.36-6.93,3.52a2,2,0,0,1-1.8-1.31c-.31-2.27-2.14-4.37-3.08-6.37a35.75,35.75,0,0,1-2-6.57c-1.08-4.22-2.43-8.33-3.81-12.44-1.49-4.43-3.52-8.73-4.29-13.38s-.22-9.34-.14-13.9l2.22,1.19-.13.37c-.35,1-2.5-.41-2.22-1.19l.13-.37c.37-1,2.23.43,2.22,1.19-.09,4.91-.66,10.16.39,15,1,4.65,3,9.38,4.73,13.83a96.05,96.05,0,0,1,3.25,11.22A32.59,32.59,0,0,0,116,99.6a12.87,12.87,0,0,1,1.72,4l-1.8-1.31c2.3-.14,2.91-1.85,4.68-2.77,1.28-.67,2.75-.94,4.08-1.52,3.19-1.4,6.16-3.22,9.24-4.83A80.48,80.48,0,0,0,143.39,88c2.54-1.79,4.72-4.14,7.3-5.81.71-.46,2.66,1.2,1.81,1.74Z"/><path d="M146.87,99.79c-1.87.81-3.48,2.06-5.34,2.88-2.19,1-4.62,1.33-6.79,2.33-3.64,1.67-7.18,3.48-10.89,5-5.24,2.18-12.72,3.73-15.35-2.33a234.22,234.22,0,0,1-8.6-24.42c-2.47-8-7.32-15.81-4-24.34.28-.71,1.71.45,1.9.69l.17.22c1,1.33-1.13.88-1.71.14l-.17-.22,1.9.69c-3,7.68,1.18,15,3.58,22.15s4.57,14.54,7.39,21.62c.46,1.15,1.1,4.3,2,5.07,1.31,1.07,4.53.56,6.08.35,3.57-.48,6.26-2.27,9.49-3.53,3.06-1.2,5.93-2.76,9-3.8,3.39-1.14,6.18-2.85,9.42-4.27.79-.35,2.66,1.37,1.81,1.75Z"/><path d="M135.37,113c-3.82,3.76-10.55,6.06-15.87,6.11a77.86,77.86,0,0,1-9.78-.24,4.58,4.58,0,0,1-3.53-2A109.36,109.36,0,0,1,94.59,99C91.17,92.51,87.77,86.69,88,79.15c0-.45.67-.31.91-.24l.35.09c.93.26,2,2.13.4,1.67l-.35-.09.91-.25c-.23,7,2.81,12.43,6,18.39a115.21,115.21,0,0,0,9.27,14.78c1.55,2,1.57,3.33,4.09,3.52a82.06,82.06,0,0,0,8.44.27c5-.17,11.52-2.17,15.2-5.79.68-.66,2.68.94,2.09,1.52Z"/></g></g></svg>